PathFileType	4	(X/Y/Z)	D:/2025/Ayumi_22_01_2025/22-01-2025/static_00_hjc.trc	
DataRate	CameraRate	NumFrames	NumMarkers	Units	OrigDataRate	OrigDataStartFrame	OrigNumFrames	
200.00	200.00	5	66	mm	200.00	272	352	
Frame#	Time	FHD			LBHD			RBHD			LBAR			RASI			RSACR			LSACR			LASI			USACR			C7			CLAV			T10			RSHO			LSHO			LTHI1			LTHI3			LTHI2			LLFC			LTIB1			LTIB2			LTIB3			LMMAL			LLMAL			LHEE			LMT1			LMT5			LMT3			RTHI1			RTHI2			RTHI3			RLFC			RMFC			RTIB1			RTIB3			RTIB2			RLMAL			RMMAL			RHEE			RMT5			RMT1			RMT3			LMEP			LLEP			LDUPA			LMUPA			LUUPA			LUL			LRAD			LRFIN			RUL			RRAD			RUFIN			RMEP			RLEP			RMUPA			RDUPA			RUUPA			LMFC			RBAR			*59			LAJC			RAJC			LKJC			RKJC			LHJC			RHJC			
		X1	Y1	Z1	X2	Y2	Z2	X3	Y3	Z3	X4	Y4	Z4	X5	Y5	Z5	X6	Y6	Z6	X7	Y7	Z7	X8	Y8	Z8	X9	Y9	Z9	X10	Y10	Z10	X11	Y11	Z11	X12	Y12	Z12	X13	Y13	Z13	X14	Y14	Z14	X15	Y15	Z15	X16	Y16	Z16	X17	Y17	Z17	X18	Y18	Z18	X19	Y19	Z19	X20	Y20	Z20	X21	Y21	Z21	X22	Y22	Z22	X23	Y23	Z23	X24	Y24	Z24	X25	Y25	Z25	X26	Y26	Z26	X27	Y27	Z27	X28	Y28	Z28	X29	Y29	Z29	X30	Y30	Z30	X31	Y31	Z31	X32	Y32	Z32	X33	Y33	Z33	X34	Y34	Z34	X35	Y35	Z35	X36	Y36	Z36	X37	Y37	Z37	X38	Y38	Z38	X39	Y39	Z39	X40	Y40	Z40	X41	Y41	Z41	X42	Y42	Z42	X43	Y43	Z43	X44	Y44	Z44	X45	Y45	Z45	X46	Y46	Z46	X47	Y47	Z47	X48	Y48	Z48	X49	Y49	Z49	X50	Y50	Z50	X51	Y51	Z51	X52	Y52	Z52	X53	Y53	Z53	X54	Y54	Z54	X55	Y55	Z55	X56	Y56	Z56	X57	Y57	Z57	X58	Y58	Z58	X59	Y59	Z59	X60	Y60	Z60	X61	Y61	Z61	X62	Y62	Z62	X63	Y63	Z63	X64	Y64	Z64	X65	Y65	Z65	X66	Y66	Z66	

265	1.320	107.04692	966.69122	1610.88098	125.48670	906.35742	1594.02246	143.73834	1037.45178	1583.28491	1040.97827	2031.48633	20.04305	162.43248	1103.03870	927.26379	322.46307	1015.51166	958.95325	319.59933	941.52863	960.57996	148.99684	865.48846	912.39520	314.59436	979.46326	970.43549	297.12527	963.20715	1401.42175	162.80716	980.56085	1329.07483	319.75668	973.60211	1117.71826	236.29724	1111.92920	1406.77209	215.45345	830.48608	1398.84314	237.20703	807.61719	606.57141	261.68329	818.90833	546.09106	211.00577	818.00067	545.81384	229.74582	840.80212	449.34644	256.58017	819.54718	233.58534	306.83777	815.53217	232.48914	280.05844	825.76636	173.49872	284.29636	914.69360	71.82458	297.89359	843.41302	69.60940	340.99371	881.69934	33.96668	143.87595	873.67377	39.18615	169.43488	796.97577	26.82527	144.84941	837.70923	37.24999	257.59650	1156.64136	608.04803	230.21254	1149.39124	548.78815	281.45844	1147.19751	547.71039	240.26259	1125.50171	455.06757	247.85754	1024.27600	449.33270	271.42212	1159.82312	276.94156	294.32120	1155.56128	215.33182	321.91916	1160.35364	274.80270	307.62393	1134.91565	73.58899	276.81909	1063.95618	75.63796	351.59210	1095.34180	28.42937	178.76866	1179.41858	29.33988	151.09694	1115.54871	37.70099	156.17087	1148.26868	36.00373	264.35648	1373.97253	1278.90356	303.49268	1376.88049	1338.87500	313.02933	1277.18115	1351.15015	310.02386	1216.91858	1362.64697	328.25043	1207.19067	1317.76746	231.80344	326.28354	1334.10986	167.87839	318.97751	1352.13074	179.27762	244.71086	1348.45630	283.01440	1611.00342	1341.42725	223.12213	1611.86121	1357.56384	222.21150	1686.07275	1354.56946	202.70938	580.62561	1278.46558	253.37994	563.02228	1329.71558	252.46240	644.02814	1361.79993	282.29208	639.62262	1322.27148	268.54193	703.87311	1367.90674	242.27722	939.39160	442.22238							291.09497	879.05331	70.71699	292.22151	1099.43591	74.61348	236.01152	890.09686	445.78441	244.06007	1074.88885	452.20013	234.29809	903.50854	936.48758	242.44778	1059.27518	943.10852 
266	1.325	107.04678	966.68188	1610.94556	125.54157	906.38843	1594.00000	143.77139	1037.46716	1583.28259	1040.99121	2031.54224	20.03051	162.44257	1103.02197	927.24963	322.44635	1015.48840	958.98981	319.58154	941.51947	960.57550	148.97902	865.47852	912.40106	314.59427	979.46069	970.41840	297.15561	963.20386	1401.40259	162.82706	980.55255	1329.08630	319.76117	973.58130	1117.70142	236.32600	1111.91711	1406.77307	215.48184	830.48535	1398.83508	237.18663	807.59033	606.55908	261.67334	818.88971	546.08209	211.02406	817.97992	545.81329	229.74767	840.78278	449.35089	256.57602	819.54346	233.57120	306.84116	815.51263	232.46759	280.07434	825.75653	173.50426	284.34518	914.67200	71.79132	297.87308	843.39905	69.60904	340.99319	881.68890	33.97520	143.86719	873.67609	39.17036	169.43060	796.97650	26.82669	144.84073	837.72455	37.24712	257.58221	1156.61682	608.05835	229.71080	1149.10242	549.39258	281.46301	1147.19165	547.67578	240.25140	1125.51111	455.05121	247.85555	1024.25513	449.32571	271.38049	1159.80762	276.98685	294.32053	1155.53528	215.31624	322.03830	1160.52429	274.93994	307.60110	1134.92004	73.60468	276.81912	1063.95276	75.63622	351.58575	1095.34106	28.42955	178.76831	1179.42920	29.34558	151.10043	1115.53821	37.70530	156.15981	1148.27734	36.00746	264.39499	1373.97949	1278.88965	303.50278	1376.86450	1338.89880	313.04858	1277.16431	1351.16089	309.74222	1216.96362	1362.68958	328.25613	1207.17761	1317.77905	231.82726	326.26746	1334.12207	168.21892	318.49921	1352.03442	179.30862	244.68442	1348.51477	283.06125	1610.98792	1341.41260	223.15875	1611.82263	1357.57434	222.26334	1686.09192	1354.52209	202.72488	580.61920	1278.48743	253.40309	563.01575	1329.70874	252.46968	644.02966	1361.81274	282.31015	639.61609	1322.29565	268.55450	703.85535	1367.93372	242.26833	939.39850	442.17288							291.10913	879.03552	70.70018	292.21011	1099.43640	74.62045	236.00800	890.09064	445.76189	244.05347	1074.88312	452.18846	234.28028	903.49899	936.48828	242.44446	1059.25519	943.11972 
267	1.330	107.12000	966.72186	1610.93640	125.62103	906.35773	1593.99512	143.83710	1037.48999	1583.28198	1041.00659	2031.57043	20.02197	162.43394	1103.03320	927.23230	322.42877	1015.47931	958.94348	319.58548	941.49805	960.58075	148.95708	865.46704	912.40839	314.56949	979.42731	970.43646	297.16901	963.19104	1401.40735	162.85567	980.52527	1329.10693	319.76212	973.56635	1117.70117	236.36530	1111.91455	1406.75623	215.51968	830.46271	1398.84680	237.17976	807.58459	606.55292	261.68546	818.87738	546.08826	210.99046	817.98572	545.80762	229.74078	840.77417	449.33420	256.57858	819.55530	233.58746	306.84769	815.50513	232.46979	280.07181	825.75122	173.49425	284.29974	914.68750	71.81691	297.88388	843.39648	69.60350	340.98532	881.67981	33.98205	143.86682	873.66632	39.17060	169.41965	796.95959	26.86846	144.84277	837.70227	37.26590	257.54318	1156.63000	608.05627	229.71962	1149.13147	549.32666	281.44052	1147.16602	547.69543	240.23311	1125.50415	455.05457	247.85533	1024.24609	449.31250	271.38934	1159.77783	276.98227	294.31409	1155.53503	215.31061	321.89133	1160.34106	274.79715	307.61096	1134.89978	73.59963	276.81781	1063.95715	75.63717	351.59213	1095.32739	28.42069	178.76218	1179.42639	29.34208	151.09221	1115.52246	37.70942	156.15520	1148.26001	36.01797	264.40182	1373.96484	1278.88684	303.53186	1376.85779	1338.89294	313.07706	1277.14319	1351.15393	309.78250	1216.96765	1362.66406	328.27228	1207.16333	1317.77319	231.87527	326.26181	1334.16797	168.25017	318.48737	1352.09949	179.40480	244.65645	1348.55566	283.10065	1610.98816	1341.40344	223.19749	1611.83081	1357.56152	222.29614	1686.08362	1354.51782	202.74162	580.61725	1278.51550	253.42122	563.00275	1329.75745	252.49420	644.01385	1361.82849	282.33112	639.60272	1322.30408	268.59448	703.84344	1367.98242	242.25778	939.38947	442.16736							291.09181	879.04199	70.71021	292.21439	1099.42847	74.61840	235.99928	890.08182	445.75078	244.04422	1074.87512	452.18353	234.27128	903.48254	936.49457	242.43136	1059.25626	943.08789 
268	1.335	107.16859	966.76691	1610.93384	125.66750	906.39893	1593.98792	143.90714	1037.52527	1583.28040	1040.99829	2031.51208	20.03887	162.43350	1103.03674	927.20569	322.41370	1015.47888	958.93756	319.59354	941.48511	960.56372	148.94943	865.44647	912.41571	314.48029	979.36920	970.56421	297.19687	963.19397	1401.40686	162.86938	980.53064	1329.11328	319.78638	973.54657	1117.65344	236.42288	1111.91150	1406.74536	215.55354	830.47638	1398.83582	237.18336	807.56445	606.56525	261.66150	818.86981	546.09314	210.98860	817.97058	545.81775	229.73647	840.76514	449.34967	256.70709	818.82831	233.69873	306.81210	815.50702	232.49821	280.07123	825.74255	173.50420	284.33954	914.67310	71.81580	297.89828	843.39941	69.60123	340.99530	881.69904	33.96931	143.86447	873.67474	39.17926	169.43282	796.97491	26.83636	144.85123	837.71252	37.25847	257.55533	1156.59583	608.03888	230.07495	1149.29980	548.84894	281.39786	1147.16431	547.74615	240.20712	1125.47974	455.07532	247.85440	1024.22485	449.30850	271.36407	1159.77380	276.98468	294.29407	1155.54187	215.35658	322.03928	1160.49268	274.94623	307.60718	1134.90601	73.60121	276.81650	1063.94678	75.63444	351.58252	1095.32349	28.41617	178.76295	1179.41833	29.35561	151.09494	1115.52747	37.71892	156.16406	1148.26782	36.00231	264.43060	1373.96008	1278.88928	303.56250	1376.84900	1338.88416	313.10587	1277.14172	1351.13513	309.81235	1216.96082	1362.64392	328.29510	1207.15930	1317.75366	231.90697	326.26099	1334.23682	168.29527	318.47919	1352.16028	179.39468	244.66505	1348.62317	283.15207	1610.95728	1341.42456	223.25415	1611.83777	1357.55859	222.33806	1686.09009	1354.51868	202.75323	580.60339	1278.54236	253.46490	563.01520	1329.76892	252.51889	644.02051	1361.86292	282.34738	639.60321	1322.32092	268.58649	703.86102	1367.94971	242.24713	939.37018	442.18045							291.11891	879.03625	70.70852	292.21184	1099.42639	74.61782	235.99180	890.06766	445.76506	244.03076	1074.85229	452.19191	234.27148	903.46579	936.48972	242.42360	1059.25781	943.07162 
269	1.340	107.24051	966.79510	1610.95288	125.73822	906.41724	1593.96423	143.96179	1037.53149	1583.28357	1041.00562	2031.52380	20.04250	162.38774	1102.99487	927.25500	322.38797	1015.45068	958.97302	319.60843	941.46790	960.55914	148.93959	865.42255	912.42340	314.56192	979.41626	970.41815	297.22830	963.16992	1401.40820	162.88571	980.52252	1329.12219	319.80136	973.53046	1117.64319	236.45103	1111.90369	1406.75952	215.54588	830.48840	1398.84644	237.13483	807.57837	606.54193	261.65909	818.85388	546.09851	210.98244	817.95996	545.81921	229.73462	840.74823	449.34094	256.57611	819.55499	233.57870	306.83414	815.50696	232.48410	280.04260	825.74536	173.50136	284.28412	914.69690	71.82263	297.87329	843.41632	69.60497	340.99463	881.69965	33.97252	143.87335	873.68219	39.18488	169.43709	796.97980	26.84702	144.83723	837.71912	37.26229	257.52567	1156.60498	608.03168	230.10005	1149.27258	548.82898	281.40933	1147.15747	547.69592	240.21808	1125.47729	455.03729	247.84558	1024.22168	449.30359	271.37180	1159.77087	276.98700	294.28445	1155.54541	215.34311	322.02414	1160.48096	274.95895	307.60678	1134.89648	73.61131	276.81256	1063.94971	75.63210	351.58362	1095.32019	28.42195	178.76404	1179.41333	29.36856	151.09979	1115.53479	37.71463	156.17458	1148.26709	35.99590	264.44629	1373.95667	1278.88965	303.59152	1376.84509	1338.86523	313.12680	1277.11804	1351.15015	309.83328	1216.95410	1362.64502	328.32239	1207.15674	1317.71252	231.93669	326.26282	1334.29944	168.06204	318.90048	1352.34033	179.45439	244.66463	1348.67114	283.20038	1610.96521	1341.39465	223.29849	1611.82288	1357.55676	222.38176	1686.07788	1354.52747	202.77734	580.58899	1278.52661	253.49373	562.99408	1329.79443	252.55641	644.01135	1361.86194	282.36993	639.59875	1322.32397	268.64154	703.83130	1367.99158	242.23650	939.36627	442.17511							291.07870	879.05661	70.71380	292.20967	1099.42310	74.62170	235.98556	890.05725	445.75803	244.03183	1074.84949	452.17044	234.27401	903.44522	936.49127	242.38786	1059.22278	943.11401 
